<svg xmlns="http://www.w3.org/2000/svg" xmlns:svgjs="http://svgjs.com/svgjs" xmlns:xlink="http://www.w3.org/1999/xlink" width="24" height="24" version="1.1" viewBox="0 0 24 24"><g><path fill="currentColor" stroke="none" stroke-linecap="round" stroke-linejoin="round" stroke-width="0" d="M1.5,16.112h8.523c0.138,0,0.25,0.112,0.25,0.25v2.024c0,0.138-0.112,0.25-0.25,0.25H8.659c-0.552,0-1,0.448-1,1 c0,0.265,0.105,0.519,0.293,0.707l2.864,2.863c0.391,0.39,1.024,0.39,1.414,0l2.863-2.863c0.39-0.391,0.39-1.024,0-1.414 c-0.187-0.187-0.442-0.293-0.707-0.293h-1.363c-0.138,0-0.25-0.112-0.25-0.25v-2.024c0-0.138,0.112-0.25,0.25-0.25H22.5 c0.69,0,1.25-0.56,1.25-1.25s-0.56-1.25-1.25-1.25h-21c-0.69,0-1.25,0.56-1.25,1.25S0.81,16.112,1.5,16.112z M0.25,10.09 c0,0.69,0.56,1.25,1.25,1.25h21c0.69,0,1.25-0.56,1.25-1.25s-0.56-1.25-1.25-1.25h-9.477c-0.138,0-0.25-0.112-0.25-0.25V5.612 c0-0.138,0.112-0.25,0.25-0.25h1.363c0.552,0,1-0.448,1-1c0-0.265-0.105-0.519-0.293-0.707L12.23,0.792 c-0.391-0.39-1.023-0.39-1.414,0L7.952,3.655c-0.39,0.391-0.39,1.024,0,1.414C8.14,5.257,8.394,5.362,8.659,5.362h1.364 c0.138,0,0.25,0.112,0.25,0.25V8.59c0,0.138-0.112,0.25-0.25,0.25H1.5C0.81,8.84,0.25,9.4,0.25,10.09z" transform="matrix(1,0,0,1,0,0)"/></g></svg>